<svg xmlns="http://www.w3.org/2000/svg" xmlns:xlink="http://www.w3.org/1999/xlink" version="1.1" x="0px" y="0px" viewBox="0 0 100 125" enable-background="new 0 0 100 100" xml:space="preserve"><g><path fill="#000000" d="M94.164,29.039c-6.042,1.936-9.062,3.312-16.509,5.535c-1.108,0.33-2.386,1.596-2.82,2.808   c-2.92,8.149-4.424,11.27-8.396,22.047c-0.592,1.604-0.387,2.75,0.533,2.371c6.184-2.548,10.215-5.27,16.792-8.091   c0.979-0.42,2.345-2.211,2.974-3.751c4.227-10.346,4.087-8.847,7.934-18.569C95.244,29.942,95.064,28.751,94.164,29.039z    M82.999,43.293c-0.504,1.122-1.773,2.435-2.826,2.882c-1.052,0.447-1.466-0.209-0.936-1.41c0.531-1.202,1.797-2.457,2.822-2.826   C83.085,41.568,83.504,42.17,82.999,43.293z"/><path fill="#000000" d="M52.86,17.004c8.093,6.658,12.36,9.313,19.977,15.319c1.134,0.895,3.555,1.16,5.153,0.653   c10.738-3.4,10.689-3.82,16.224-5.41c0.824-0.236,0.436-1.197-0.852-2.082c-8.647-5.938-10.694-7.598-18.335-12.794   c-1.137-0.773-3.104-1.261-4.216-1.076c-7.479,1.236-8.848,1.276-17.639,3.055C51.864,14.934,51.655,16.013,52.86,17.004z    M83.483,22.653c0.83-0.261,2.509,0.185,3.763,1.032c1.254,0.849,1.653,1.784,0.862,2.048s-2.514-0.235-3.808-1.087   C83.006,23.796,82.651,22.913,83.483,22.653z M79.174,24.074c0.888-0.301,2.584,0.146,3.891,1.003   c1.306,0.855,1.76,1.808,0.886,2.122c-0.873,0.315-2.759-0.128-4.079-0.998C78.551,25.332,78.288,24.374,79.174,24.074z    M78.569,29.09c-1.267,0.431-3.512,0.085-4.795-0.822s-1.165-2.007,0.065-2.409c1.232-0.403,3.145,0.011,4.462,0.889   C79.619,27.626,79.836,28.659,78.569,29.09z M71.112,14.403c1.027-0.193,2.898,0.307,4.072,1.101   c1.175,0.793,1.277,1.607,0.317,1.829c-0.961,0.223-2.701-0.248-3.943-1.072C70.316,15.438,70.084,14.596,71.112,14.403z    M65.958,15.396c1.009-0.2,2.858,0.346,4.125,1.184s1.526,1.685,0.559,1.926c-0.966,0.242-2.849-0.238-4.157-1.118   C65.177,16.507,64.95,15.596,65.958,15.396z M60.322,16.57c1.218-0.266,3.191,0.299,4.507,1.198   c1.317,0.899,1.501,1.837,0.276,2.158c-1.224,0.319-3.407-0.137-4.719-1.091C59.076,17.882,59.105,16.836,60.322,16.57z"/><path fill="#000000" d="M57.965,38.688c-0.37-1.613-1.899-2.085-3.281-1.189c-9.287,6.012-10.237,7.304-20.638,13.92   c-1.549,0.985-2.567,3.248-2.062,4.942c3.392,11.4,5.324,16.63,8.808,29.233c0.519,1.878,2.667,2.031,4.521,0.497   c12.455-10.309,13.442-11.675,18.545-16.116c0.76-0.661,1.144-2.278,0.797-3.723C62.325,56.558,60.454,49.537,57.965,38.688z    M42.104,59.327c-1.449,1.023-3.271,0.549-3.868-1.169s0.214-3.971,1.625-4.943c1.412-0.974,2.942-0.354,3.576,1.312   C44.07,56.194,43.554,58.302,42.104,59.327z M48.594,77.162c-1.549,1.226-3.493,0.872-4.097-0.936   c-0.603-1.808,0.323-4.288,1.841-5.417c1.52-1.131,3.104-0.551,3.738,1.16C50.711,73.682,50.146,75.936,48.594,77.162z    M51.987,63.262c-1.114,0.825-2.633,0.191-3.286-1.49c-0.654-1.685-0.196-3.759,0.936-4.583c1.13-0.823,2.515-0.094,3.151,1.59   C53.424,60.46,53.1,62.438,51.987,63.262z M54.354,50.532c-1.127,0.787-2.503,0.049-3.102-1.622s-0.144-3.663,1.065-4.499   c1.208-0.835,2.671-0.179,3.188,1.542C56.021,47.673,55.479,49.745,54.354,50.532z M60.222,67.831   c-0.89,0.702-2.102,0.019-2.692-1.614s-0.285-3.575,0.691-4.281c0.975-0.706,2.207,0.1,2.71,1.736   C61.435,65.309,61.11,67.13,60.222,67.831z"/><path fill="#000000" d="M6.628,48.735c7.846,1.066,10.187,1.539,19.906,2.905c1.446,0.203,3.961-0.416,5.428-1.338   c9.859-6.188,13.689-8.025,21.955-14.055c1.23-0.896,0.789-1.708-0.741-1.759c-10.285-0.345-10.064-0.502-20.163-1.077   c-1.502-0.085-3.986,0.508-5.223,1.262c-8.309,5.062-10.343,5.808-20.471,12.008C5.812,47.604,5.46,48.576,6.628,48.735z    M40.918,38.174c1.288-0.817,3.315-1.449,4.655-1.368c1.339,0.081,1.526,0.87,0.24,1.726c-1.285,0.854-3.554,1.425-4.897,1.307   S39.631,38.991,40.918,38.174z M28.245,41.496c1.322-0.742,3.292-1.228,4.431-1.098s1.042,0.854-0.281,1.625   c-1.321,0.771-3.38,1.278-4.519,1.119C26.736,42.984,26.925,42.236,28.245,41.496z M15.044,44.644   c1.456-0.834,3.59-1.318,4.787-1.151c1.198,0.166,0.993,0.931-0.488,1.773s-3.687,1.447-4.862,1.273   C13.308,46.365,13.588,45.479,15.044,44.644z"/><path fill="#000000" d="M71.563,33.21c-7.945-5.849-10.553-8.545-19.583-14.896c-1.344-0.945-2.896-0.183-3.304,1.436   c-1.696,6.725-2.249,8.919-3.207,12.182c1.906,0.101,4.198,0.197,7.781,0.317c2.57,0.087,3.301,1.572,3.497,2.207   c0.029,0.095,0.062,0.247,0.086,0.426c1.624,0.299,2.912,1.551,3.314,3.306c1.529,6.667,2.798,11.773,4.141,17.181   c0.277,1.118,0.558,2.246,0.839,3.386c0.05-0.108,0.104-0.213,0.141-0.332c3.361-10.9,3.835-10.296,7.453-20.633   C73.26,36.251,72.746,34.08,71.563,33.21z M63.781,40.616c-1.228,0.084-2.644-1.039-3.137-2.473   c-0.494-1.434,0.112-2.713,1.341-2.919c1.229-0.207,2.598,0.859,3.093,2.415C65.571,39.196,65.009,40.532,63.781,40.616z"/><path fill="#000000" d="M30.338,57.876c-0.6-2.057-2.577-4.145-4.096-4.36c-10.205-1.446-9.529-1.479-19.309-2.907   c-1.455-0.212-2.335,1.133-1.751,2.89c3.919,11.814,5.118,14.764,8.455,25.114c0.497,1.541,2.084,3.175,3.428,3.551   c9.028,2.528,11.395,3.695,20.31,6.2c1.327,0.373,2.032-1.005,1.51-2.864C35.382,73.009,34.368,71.705,30.338,57.876z    M14.398,62.693c-1.26-0.27-2.822-1.789-3.367-3.482c-0.545-1.695,0.141-2.968,1.389-2.731c1.25,0.236,2.629,1.936,3.184,3.664   C16.157,61.87,15.659,62.965,14.398,62.693z M19.47,78.604c-1.289-0.341-2.812-1.939-3.298-3.486   c-0.485-1.547,0.252-2.504,1.529-2.2c1.277,0.303,2.636,1.771,3.132,3.354C21.33,77.854,20.759,78.944,19.47,78.604z    M26.291,65.355c-1.284-0.271-2.689-1.818-3.296-3.613c-0.605-1.797-0.203-3.222,1.08-2.984c1.285,0.237,2.998,2.09,3.604,3.92   C28.283,64.506,27.576,65.627,26.291,65.355z M32.029,82.057c-1.285-0.339-2.731-2.054-3.281-3.71   c-0.551-1.655-0.021-2.684,1.261-2.382c1.284,0.302,2.854,1.841,3.405,3.531C33.966,81.187,33.313,82.395,32.029,82.057z"/></g><text x="0" y="115" fill="#000000" font-size="5px" font-weight="bold" font-family="'Helvetica Neue', Helvetica, Arial-Unicode, Arial, Sans-serif">Created by Yamini Ahluwalia</text><text x="0" y="120" fill="#000000" font-size="5px" font-weight="bold" font-family="'Helvetica Neue', Helvetica, Arial-Unicode, Arial, Sans-serif">from the Noun Project</text></svg>