<svg fill="none" height="24" viewBox="0 0 24 24" width="24" xmlns="http://www.w3.org/2000/svg"><g fill="#292d32"><path d="m21.6997 6.39014h-7.27c-.41 0-.75-.34-.75-.75s.34-.75.75-.75h7.27c.41 0 .75.34.75.75s-.34.75-.75.75z"/><path d="m9.58078 6.39014h-7.28c-.41 0-.75-.34-.75-.75s.34-.75.75-.75h7.27c.41 0 .75002.34.75002.75s-.33002.75-.74002.75z"/><path d="m21.6997 16.0801h-7.27c-.41 0-.75-.34-.75-.75s.34-.75.75-.75h7.27c.41 0 .75.34.75.75s-.34.75-.75.75z"/><path d="m21.6997 22.1401h-7.27c-.41 0-.75-.34-.75-.75s.34-.75.75-.75h7.27c.41 0 .75.34.75.75s-.34.75-.75.75z"/><path d="m18.0898 10.02c-.41 0-.75-.34-.75-.75v-7.27c0-.41.34-.75.75-.75s.75.34.75.75v7.27c0 .42-.33.75-.75.75z"/><path d="m2.30023 22.7499c-.19 0-.38-.07-.53-.22-.29-.29-.29-.77 0-1.06l7.27-7.27c.29-.29.77001-.29 1.05997 0 .29.29.29.77 0 1.06l-7.26997 7.27c-.14.15-.33.22-.53.22z"/><path d="m9.58 22.7499c-.19 0-.38-.07-.53-.22l-7.27-7.27c-.29-.29-.29-.77 0-1.06s.77-.29 1.06 0l7.27 7.27c.29.29.29.77 0 1.06-.15.15-.34.22-.53.22z"/></g></svg>